<svg width="512" height="512" viewBox="0 0 512 512" fill="none" xmlns="http://www.w3.org/2000/svg">
<g clip-path="url(#clip0_3_2)">
<path fill-rule="evenodd" clip-rule="evenodd" d="M503.929 306.615C501.302 343.537 489.196 377.887 470.009 407.15C432.263 464.848 367.107 502.941 293.071 502.941C247.13 502.941 204.616 488.195 169.954 463.19C116.504 424.639 81.67 361.683 81.67 290.812L209.242 113.261L305.806 80.197C330.761 81.683 354.516 87.484 376.387 96.886C383.24 99.829 389.921 103.144 396.402 106.774C460.873 143.01 504.444 212.081 504.444 291.355C504.443 296.499 504.271 301.585 503.929 306.615Z" fill="#A6E7F0"/>
<path fill-rule="evenodd" clip-rule="evenodd" d="M396.401 106.774C460.872 143.01 504.443 212.081 504.443 291.355C504.443 296.499 504.272 301.586 503.929 306.615C499.104 338.85 443.398 335.764 440.457 307.672C437.745 281.809 413.903 281.152 402.939 280.066C375.929 277.323 363.68 258.004 398.171 212.681C426.895 174.93 321.565 136.608 376.386 96.886C383.238 99.829 389.92 103.144 396.401 106.774V106.774Z" fill="#80D261"/>
<path fill-rule="evenodd" clip-rule="evenodd" d="M312 153.526L325.248 165.3C331.986 171.301 332.614 181.732 326.619 188.505L294.012 225.227L269.114 206.966L270.684 175.331L288.843 154.898C294.841 148.125 305.262 147.525 312 153.526V153.526Z" fill="#838383"/>
<path fill-rule="evenodd" clip-rule="evenodd" d="M270.685 175.331L294.012 225.227L304.205 247.089C311.771 263.264 306.318 279.639 300.265 286.44L288.501 299.671C279.621 309.702 272.255 306.701 265.117 295.87L196.449 194.249L206.1 148.44L254.81 141.324L270.685 175.331Z" fill="#ACACAC"/>
<path fill-rule="evenodd" clip-rule="evenodd" d="M145.341 240.601L170.61 291.469C176.806 303.957 172.237 316.903 167.526 322.218L161.073 329.477C154.135 337.307 148.367 334.992 142.8 326.505L102.513 279.438L112.049 251.918L145.341 240.601Z" fill="#ACACAC"/>
<path fill-rule="evenodd" clip-rule="evenodd" d="M47.978 182.418L100.6 200.936L100.372 237.001L67.508 247.517L16.485 214.167C7.434 209.623 4.436 204.165 11.403 196.363L17.856 189.076C22.566 183.79 34.844 177.788 47.978 182.418V182.418Z" fill="#ACACAC"/>
<path fill-rule="evenodd" clip-rule="evenodd" d="M352.573 401.692C371.389 370.4 429.35 363.255 470.008 407.15C432.262 464.848 367.106 502.941 293.07 502.941C247.129 502.941 204.615 488.195 169.953 463.19C168.04 405.207 214.837 390.175 252.555 421.353C268.801 434.756 328.846 441.243 352.573 401.692V401.692Z" fill="#80D261"/>
<path fill-rule="evenodd" clip-rule="evenodd" d="M143.371 9.068C147.254 9.068 151.137 10.411 154.221 13.183L167.469 24.957C174.236 30.958 174.835 41.418 168.84 48.162L150.709 68.595H112.049L98.458 51.277L131.065 14.555C134.291 10.926 138.803 9.068 143.314 9.068H143.371Z" fill="#838383"/>
<path fill-rule="evenodd" clip-rule="evenodd" d="M98.458 51.277L150.709 68.595L186.285 80.369L180.003 126.379L140.658 144.611L31.731 88.284C20.139 82.454 16.313 75.51 25.221 65.479L36.985 52.248C43.01 45.447 58.628 38.102 75.559 43.703L98.458 51.277Z" fill="#ACACAC"/>
<path fill-rule="evenodd" clip-rule="evenodd" d="M248.871 19.527C266.374 14.326 289.529 10.868 300.551 20.784C311.686 30.557 310.944 53.962 307.832 71.966C307.375 74.652 306.718 77.396 305.805 80.196C301.751 92.941 293.042 106.573 278.309 120.033L254.81 141.323L196.449 194.248L102.426 279.351L98.429 283.123C92.719 287.867 86.951 290.267 81.669 290.81C63.852 292.639 51.432 273.349 63.967 252.488L67.507 247.516L140.658 144.609L186.285 80.367L204.673 54.533C218.806 34.759 234.281 23.871 248.871 19.527V19.527Z" fill="#ECECEC"/>
<path fill-rule="evenodd" clip-rule="evenodd" d="M235.281 121.977L176.92 174.902L82.897 260.005L78.9 263.777C73.161 268.521 67.422 270.921 62.14 271.464C61.055 271.578 59.999 271.607 58.971 271.578C60.027 283.609 69.621 292.039 81.67 290.811C86.952 290.268 92.72 287.868 98.43 283.124L102.427 279.352L196.45 194.249L254.811 141.324L278.31 120.034C293.043 106.574 301.751 92.943 305.806 80.197C306.72 77.396 307.376 74.653 307.833 71.967C310.945 53.963 311.688 30.558 300.552 20.785C297.411 17.956 293.3 16.213 288.589 15.298C291.359 26.415 290.359 40.703 288.303 52.649C287.846 55.335 287.189 58.05 286.276 60.851C282.222 73.596 273.513 87.228 258.78 100.688L235.281 121.977Z" fill="#CECECE"/>
<path fill-rule="evenodd" clip-rule="evenodd" d="M279.422 282.924L210.725 181.303L196.449 194.249L265.117 295.87C272.255 306.701 279.622 309.701 288.501 299.671L294.925 292.441C289.359 294.155 284.333 290.412 279.422 282.924Z" fill="#838383"/>
<path fill-rule="evenodd" clip-rule="evenodd" d="M314.913 178.074L286.789 209.766L294.013 225.226L326.62 188.504C332.616 181.731 331.988 171.3 325.249 165.299L313.6 154.925V154.954C320.281 160.956 320.88 171.359 314.913 178.074V178.074Z" fill="#595959"/>
<path fill-rule="evenodd" clip-rule="evenodd" d="M134.169 63.008L150.709 68.595L168.84 48.162C174.836 41.418 174.236 30.958 167.469 24.957L158.389 16.87C165.099 22.9 162.521 32.173 156.411 38.832L134.169 63.008Z" fill="#595959"/>
<path fill-rule="evenodd" clip-rule="evenodd" d="M151.108 129.864L42.21 73.538C34.101 69.48 29.79 64.85 30.989 58.992L25.221 65.479C16.313 75.51 20.139 82.454 31.731 88.284L140.658 144.61L151.108 129.864Z" fill="#838383"/>
<path fill-rule="evenodd" clip-rule="evenodd" d="M155.049 315.388L114.762 268.321L102.513 279.438L142.8 326.505C148.368 334.992 154.135 337.307 161.073 329.477L166.898 322.933C162.672 324.047 158.818 321.104 155.049 315.388Z" fill="#838383"/>
<path fill-rule="evenodd" clip-rule="evenodd" d="M77.13 233.971L26.136 200.621C20.026 197.535 16.685 194.077 17.285 189.733L11.403 196.363C4.436 204.165 7.434 209.623 16.485 214.167L67.508 247.517L77.13 233.971Z" fill="#838383"/>
<path fill-rule="evenodd" clip-rule="evenodd" d="M504.443 291.355C504.443 212.081 460.872 143.01 396.401 106.774C392.946 104.831 389.406 102.973 385.808 101.201C420.385 146.982 441.799 210.481 441.799 280.667C441.799 290.24 441.399 299.671 440.628 308.93C445.054 335.85 499.189 338.365 503.928 306.615C504.271 301.585 504.443 296.499 504.443 291.355V291.355Z" fill="#4FC122"/>
<path fill-rule="evenodd" clip-rule="evenodd" d="M503.929 306.615C499.189 338.364 445.054 335.85 440.629 308.93C438.545 333.764 433.805 357.483 426.753 379.573C441.714 383.974 456.79 392.861 470.01 407.15C489.196 377.887 501.302 343.537 503.929 306.615Z" fill="#6BD9E7"/>
<path fill-rule="evenodd" clip-rule="evenodd" d="M426.752 379.573C411.705 426.84 386.179 466.705 354.115 493.997C402.197 479.48 443.084 448.302 470.009 407.151C456.789 392.861 441.713 383.974 426.752 379.573Z" fill="#4FC122"/>
<path d="M512 291.354C512 212.23 469.124 138.979 400.102 100.184C373.718 85.365 345.212 76.383 315.252 73.389C315.26 73.344 315.271 73.299 315.279 73.254C318.675 53.607 319.742 27.572 305.606 15.166C290.79 1.833 262.352 7.638 246.715 12.283C229.151 17.512 212.486 30.603 198.513 50.156L183.381 71.445L163.982 65.021L174.488 53.182C178.736 48.404 180.865 42.237 180.484 35.818C180.103 29.405 177.262 23.54 172.49 19.306L159.247 7.54C154.479 3.293 148.32 1.167 141.915 1.545C135.517 1.927 129.658 4.763 125.414 9.537L96.104 42.546L77.933 36.529C56.871 29.563 38.522 39.116 31.337 47.227L19.571 60.462C14.103 66.619 11.905 72.742 13.04 78.664C14.278 85.127 19.282 90.483 28.26 94.998L129.448 147.323L97.747 191.922L50.49 175.29C33.475 169.29 18.278 177.241 12.197 184.066L5.76499 191.329C1.12499 196.525 -0.729006 201.779 0.255994 206.943C1.77499 214.916 9.59799 219.152 12.706 220.725L56.904 249.614C46.716 267.469 51.662 283.655 61.264 291.897C64.61 294.769 69.063 297.085 74.243 298.05C75.083 324.133 80.45 349.522 90.26 373.619C91.454 376.552 94.28 378.329 97.262 378.329C98.211 378.329 99.175 378.149 100.108 377.77C103.973 376.196 105.832 371.787 104.258 367.922C95.047 345.294 90.04 321.436 89.326 296.92C93.332 295.603 97.503 293.422 101.738 290.155L136.749 331.058C138.692 333.993 143.79 341.206 151.845 341.789C152.197 341.814 152.547 341.827 152.897 341.827C157.763 341.827 162.411 339.363 166.722 334.499L173.182 327.231C179.266 320.367 185.404 304.285 177.378 288.107L154.65 242.353L195.07 205.705L219.712 242.175C221.172 244.336 223.555 245.501 225.981 245.501C227.437 245.501 228.908 245.081 230.205 244.205C233.663 241.868 234.573 237.171 232.236 233.712L206.382 195.448L252.304 153.812L263.784 178.393C263.832 178.501 263.881 178.608 263.934 178.714L297.362 250.291C303.859 264.18 298.322 277.258 294.619 281.418L282.844 294.661C280.266 297.574 278.564 298.315 277.953 298.238C277.087 298.177 274.739 296.733 271.38 291.637L250.536 260.802C248.2 257.345 243.501 256.437 240.043 258.773C236.585 261.11 235.677 265.808 238.014 269.267L258.809 300.029C264.394 308.502 270.305 312.848 276.881 313.315C277.268 313.343 277.652 313.357 278.037 313.357C283.641 313.356 289.06 310.443 294.15 304.692L305.911 291.464C313.13 283.353 320.455 263.989 311.053 243.891L302.95 226.542L332.277 193.515C341.032 183.627 340.134 168.438 330.269 159.651L317.027 147.883C312.253 143.63 306.095 141.494 299.687 141.879C293.283 142.259 287.423 145.104 283.196 149.878L272.674 161.717L264.021 143.188L283.384 125.632C283.391 125.626 283.397 125.62 283.404 125.614C296.268 113.867 305.575 101.128 310.916 88.148C328.592 89.67 345.731 93.434 362.184 99.382C356.855 105.275 353.812 111.54 352.979 118.335C350.855 135.65 363.767 150.989 376.254 165.824C393.418 186.216 400.583 197.033 392.158 208.106C372.318 234.177 365.471 254.797 371.806 269.393C374.936 276.604 382.746 285.613 402.195 287.589C402.824 287.652 403.494 287.712 404.2 287.776C418.337 289.061 431.173 291.61 432.941 308.46C434.672 324.991 450.361 336.858 471.093 337.317C471.465 337.325 471.838 337.33 472.212 337.33C479.196 337.33 486.361 335.881 492.646 332.836C488.032 355.113 479.77 376.066 468.528 395.054C447.427 375.824 421.227 366.422 395.349 369.1C373.668 371.338 355.716 381.798 346.092 397.805C335.976 414.666 318.881 420.781 306.322 422.942C284.744 426.653 264.024 421.02 257.368 415.53C236.259 398.081 211.052 393.18 191.587 402.739C175.635 410.573 165.618 426.799 163.019 448.309C147.261 435.162 133.327 419.524 121.825 401.685C119.564 398.177 114.888 397.168 111.378 399.428C107.871 401.69 106.86 406.367 109.122 409.875C149.746 472.883 218.51 510.5 293.069 510.5C351.553 510.5 406.534 487.704 447.883 446.31C485.346 408.808 507.558 360.106 511.399 307.746C511.4 307.742 511.4 307.739 511.401 307.736C511.463 307.322 511.481 306.912 511.475 306.506C511.817 301.484 512 296.434 512 291.354V291.354ZM294.503 159.907C296.058 158.151 298.217 157.106 300.582 156.965C302.946 156.82 305.221 157.607 306.98 159.174L320.222 170.942C323.875 174.196 324.207 179.828 320.967 183.487L295.982 211.624L279.638 176.63L294.503 159.907ZM136.713 19.576C138.274 17.82 140.441 16.774 142.814 16.633C145.185 16.475 147.448 17.271 149.201 18.832L162.455 30.61C164.21 32.167 165.255 34.335 165.396 36.714C165.538 39.1 164.755 41.382 163.187 43.146L148.365 59.85L111.724 47.717L136.713 19.576ZM35.127 81.533C28.515 78.208 27.93 76.054 27.885 75.82C27.77 75.222 28.271 73.428 30.87 70.502L42.643 57.259C46.328 53.1 58.642 46.066 73.185 50.879L148.035 75.664C148.161 75.712 148.289 75.75 148.417 75.791L174.22 84.335L138.293 134.88L35.127 81.533ZM19.876 207.414C16.553 205.746 15.472 204.558 15.17 204.143C15.297 203.781 15.717 202.88 17.061 201.373L23.498 194.104C26.111 191.172 35.271 185.949 45.47 189.547L88.639 204.738L65.556 237.213L20.621 207.843C20.38 207.685 20.131 207.542 19.876 207.414V207.414ZM163.84 294.827C168.637 304.497 164.496 314.243 161.878 317.197L155.417 324.466C154.092 325.961 153.247 326.482 152.901 326.651C152.452 326.396 151.15 325.457 149.119 322.36C148.943 322.092 148.75 321.835 148.542 321.592L113.023 280.096L143.015 252.903L163.84 294.827ZM273.215 114.451L249.924 135.568C249.794 135.679 249.667 135.793 249.546 135.911L93.48 277.411C89.296 280.856 85.007 282.828 81.056 283.285C80.97 283.292 80.884 283.298 80.799 283.308C77.15 283.671 73.798 282.738 71.107 280.428C66.181 276.2 64.046 267.215 70.303 256.619L146.718 149.113C146.775 149.036 146.83 148.959 146.884 148.879L210.82 58.928C222.81 42.151 236.714 31.03 251.023 26.771C271.833 20.586 288.876 20.445 295.565 26.464C302.24 32.322 304.086 49.264 300.382 70.69C297.866 85.386 288.471 100.518 273.215 114.451V114.451ZM471.428 322.206C460.544 321.965 448.993 316.625 447.973 306.884C444.764 276.285 417.297 273.788 405.569 272.722C404.906 272.661 404.276 272.604 403.703 272.547C396.998 271.867 388.426 269.722 385.671 263.372C381.844 254.556 388.592 237.746 404.186 217.255C420.859 195.342 402.538 173.577 387.817 156.088C377.415 143.731 366.659 130.952 367.981 120.173C368.585 115.248 371.707 110.461 377.47 105.619C382.624 107.975 387.703 110.555 392.699 113.361C456.964 149.481 496.886 217.684 496.886 291.353C496.886 296.304 496.699 301.212 496.351 306.076C494.149 318.322 481.629 322.441 471.428 322.206V322.206ZM293.07 495.384C251.008 495.384 210.936 482.497 177.461 459.296C177.595 438.34 185.069 422.777 198.251 416.304C212.311 409.396 231.274 413.565 247.745 427.182C259.851 437.169 286.137 441.747 308.884 437.836C324.561 435.139 345.99 427.354 359.049 405.586C366.092 393.873 380.243 385.852 396.901 384.133C419.199 381.825 441.974 390.477 460.213 407.969C423.339 460.774 362.171 495.384 293.07 495.384V495.384Z" fill="black"/>
<path d="M248.269 43.546C244.11 43.895 241.021 47.548 241.369 51.707C241.718 55.867 245.368 58.965 249.531 58.607C257.114 57.992 267.16 67.209 268.084 75.647C268.508 79.517 271.782 82.383 275.587 82.383C275.862 82.383 276.14 82.368 276.419 82.337C280.568 81.883 283.563 78.151 283.109 74.003C281.281 57.311 264.029 42.21 248.269 43.546V43.546Z" fill="black"/>
</g>
<defs>
<clipPath id="clip0_3_2">
<rect width="512" height="512" fill="white"/>
</clipPath>
</defs>
</svg>
